<svg xmlns="http://www.w3.org/2000/svg" width="540.585" height="419.881" viewBox="0 0 540.585 419.881"><defs><style>.a{fill:#f95c30;}.b{opacity:0.1;}.c,.o,.q{fill:#fff;}.ab,.d{fill:#e1e1e1;}.e{opacity:0;}.f{opacity:0.09;}.g{opacity:0.05;}.h{opacity:0.17;}.i{fill:#00dfbf;}.j{fill:#c2c2c2;}.k{opacity:0.23;}.l{opacity:0.18;}.m{fill:#fafafa;}.m,.z{stroke-miterlimit:10;}.n{fill:#f0f0f0;}.o,.y{opacity:0.4;}.p,.z{opacity:0.15;}.q{opacity:0.5;}.r{fill:#1a2e35;}.s{fill:#375a64;}.t{fill:#2b454e;}.u{fill:#4b49ff;}.v{opacity:0.2;}.w{fill:#ffaaa8;}.x{fill:#ff9090;}.z{fill:none;stroke:#000;}.aa,.ab{stroke:none;}</style></defs><g transform="translate(-2939 -930)"><g transform="translate(2939 1144.887)"><path class="a" d="M830.411,373.144c.176-14.677-10.074-45.2-25.074-64.445s-38.779-33.461-55.859-27.846c-15.907,5.228-14.441,26.032,4.615,40.036s47.74,31.65,55.906,55.559l17.384,29.423Z" transform="translate(-738.575 -279.615)"/><path class="b" d="M830.411,373.144c.176-14.677-10.074-45.2-25.074-64.445s-38.779-33.461-55.859-27.846c-15.907,5.228-14.441,26.032,4.615,40.036s47.74,31.65,55.906,55.559l17.384,29.423Z" transform="translate(-738.575 -279.615)"/><g transform="translate(17.618 9.956)"><path class="c" d="M828.259,391.548a1.073,1.073,0,0,1-.955-.873c-9.225-50.219-49.266-91.428-73.416-100.718a1.073,1.073,0,0,1-.616-1.385,1.062,1.062,0,0,1,1.387-.617c24.609,9.466,65.39,51.352,74.754,102.332a1.071,1.071,0,0,1-.86,1.247A1.012,1.012,0,0,1,828.259,391.548Z" transform="translate(-753.201 -287.88)"/></g><g transform="translate(8.879 63.323)"><path class="a" d="M821.887,414.462c-2.259-8.278-12.172-22.013-28.335-33.455-17.88-12.657-40.629-18.652-45.772-28.4-6.179-11.708,3.758-22.58,22.251-20.061s50.752,28.18,55.5,66.287Z" transform="translate(-745.946 -332.181)"/><g transform="translate(15.234 10.097)"><path class="c" d="M822.987,404.133a1.074,1.074,0,0,1-.915-.719c-14.848-43.105-47.413-58.564-62.558-60.716a1.072,1.072,0,0,1-.911-1.212,1.058,1.058,0,0,1,1.212-.912c16.747,2.379,49.13,18.143,64.285,62.141a1.074,1.074,0,0,1-.665,1.364A1.047,1.047,0,0,1,822.987,404.133Z" transform="translate(-758.592 -340.563)"/></g></g></g><path class="d" d="M1353.477,900.762c-17.307-9.993-17.307-26.194,0-36.187s45.37-9.992,62.677,0,17.308,26.193,0,36.186S1370.785,910.755,1353.477,900.762Z" transform="translate(2032.422 441.625)"/><path class="d" d="M1042.933,917.242l-45.527-26.286c-2.568-1.482-2.568-3.885,0-5.367L1262.224,732.7a10.271,10.271,0,0,1,9.295,0l45.53,26.285c2.567,1.482,2.567,3.885,0,5.366L1052.229,917.242A10.273,10.273,0,0,1,1042.933,917.242Z" transform="translate(1990.93 426.532)"/><g transform="translate(3020.231 930)"><g transform="translate(109.613 252.516)"><g transform="translate(0.007)"><path class="a" d="M1191.184,867.775l39.14-22.63c4.034-2.329,6.051-5.382,6.052-8.435s.017-5.444.017-5.444l-40.608-22.9a8.612,8.612,0,0,1-3.9-6.748V753.365l-68.362,39.5,0,48.254a8.611,8.611,0,0,0,3.9,6.748l34.543,19.9C1170.032,872.433,1183.115,872.433,1191.184,867.775Z" transform="translate(-1123.523 -753.365)"/></g><path class="e" d="M1139.938,846.233v5.42l-12.529-7.22a8.618,8.618,0,0,1-3.892-6.748V789.436l13.024-7.514c.27,3.307.562,6.726.832,10.055l-9.132,5.285v37.7a8.56,8.56,0,0,0,3.892,6.749Z" transform="translate(-1123.517 -749.931)"/><path class="a" d="M1127.732,837.566a8.611,8.611,0,0,0,3.9,6.748l29.824,17.178c8.069,4.658,21.152,4.66,29.222,0l39.159-22.628c8.07-4.657,8.07-12.209,0-16.868l-29.843-17.19a8.611,8.611,0,0,1-3.9-6.748v-37.7l-68.364,39.5Z" transform="translate(-1123.01 -752.524)"/><path class="f" d="M1127.732,837.566a8.611,8.611,0,0,0,3.9,6.748l29.824,17.178c8.069,4.658,21.152,4.66,29.222,0l39.159-22.628c8.07-4.657,8.07-12.209,0-16.868l-29.843-17.19a8.611,8.611,0,0,1-3.9-6.748v-37.7l-68.364,39.5Z" transform="translate(-1123.01 -752.524)"/><path class="f" d="M1207.928,809.4v-.006l-7.936-4.582a8.611,8.611,0,0,1-3.9-6.748v-37.7l-68.364,39.5v37.707a8.611,8.611,0,0,0,3.9,6.748l7.8,4.5Z" transform="translate(-1123.01 -752.524)"/><path class="a" d="M1230.617,822.907v5.443c0,3.06-2.024,6.1-6.051,8.436L1185.421,859.4a29.3,29.3,0,0,1-13.946,3.464v-5.421a29.3,29.3,0,0,0,13.946-3.464l39.145-22.641C1228.593,829.025,1230.617,825.965,1230.617,822.907Z" transform="translate(-1117.75 -745.002)"/></g><path class="a" d="M1030.241,912.38a10.443,10.443,0,0,0,9.439-.174L1304.058,759.57a10.762,10.762,0,0,0,4.869-8.434V537.262a9.148,9.148,0,0,0-14.007-8.086L1030.546,681.812a10.763,10.763,0,0,0-4.87,8.434l0,213.873A10.442,10.442,0,0,0,1030.241,912.38Z" transform="translate(-1025.671 -527.957)"/><path class="a" d="M1038.7,911.574,1303.078,758.94a10.763,10.763,0,0,0,4.87-8.434V536.63c0-3.105-2.18-4.363-4.87-2.811L1038.7,686.455a10.764,10.764,0,0,0-4.871,8.434l0,213.874C1033.831,911.869,1036.011,913.127,1038.7,911.574Z" transform="translate(-1024.69 -527.332)"/><path class="g" d="M1038.7,911.574,1303.078,758.94a10.763,10.763,0,0,0,4.87-8.434V536.63c0-3.105-2.18-4.363-4.87-2.811L1038.7,686.455a10.764,10.764,0,0,0-4.871,8.434l0,213.874C1033.831,911.869,1036.011,913.127,1038.7,911.574Z" transform="translate(-1024.69 -527.332)"/><path class="a" d="M1038.965,878.912a9.1,9.1,0,0,1-13.294-8.458V850.98l9.134,5.285V875.74C1034.8,878.574,1036.6,879.856,1038.965,878.912Z" transform="translate(-1025.671 -489.109)"/><path class="h" d="M1038.965,878.912a9.1,9.1,0,0,1-13.294-8.458V850.98l9.134,5.285V875.74C1034.8,878.574,1036.6,879.856,1038.965,878.912Z" transform="translate(-1025.671 -489.109)"/><path class="a" d="M1033.824,872.692l.008,19.467c0,3.105,2.18,4.365,4.87,2.812l264.378-152.635a10.767,10.767,0,0,0,4.87-8.436V714.392Z" transform="translate(-1024.691 -505.536)"/><path class="h" d="M1033.831,872.652v19.507c0,3.105,2.18,4.365,4.87,2.812l264.378-152.635a10.767,10.767,0,0,0,4.87-8.436V714.392Z" transform="translate(-1024.69 -505.536)"/><path class="i" d="M1041.985,868.45l0-172.135a6.455,6.455,0,0,1,2.922-5.06L1294.9,546.92c1.614-.931,2.922-.176,2.922,1.687l.009,172.138a6.461,6.461,0,0,1-2.922,5.061l-250,144.33C1043.293,871.068,1041.985,870.313,1041.985,868.45Z" transform="translate(-1023.709 -525.724)"/><path class="j" d="M1041.985,868.45l0-172.135a6.455,6.455,0,0,1,2.922-5.06L1294.9,546.92c1.614-.931,2.922-.176,2.922,1.687l.009,172.138a6.461,6.461,0,0,1-2.922,5.061l-250,144.33C1043.293,871.068,1041.985,870.313,1041.985,868.45Z" transform="translate(-1023.709 -525.724)"/><path class="i" d="M1156.664,790.642a10.1,10.1,0,0,0-4.571,7.915c0,2.914,2.047,4.1,4.571,2.638a10.1,10.1,0,0,0,4.57-7.915C1161.233,790.366,1159.187,789.186,1156.664,790.642Z" transform="translate(-1010.467 -496.441)"/><path class="k" d="M1036.243,673.792a10.345,10.345,0,0,0-1.438,4.813v199.6l-9.134-5.285.006-199.582a10.071,10.071,0,0,1,1.434-4.813Z" transform="translate(-1025.671 -511.051)"/><path class="l" d="M1308.725,536.455c-.345-2.511-2.372-3.42-4.825-2.015L1039.53,687.085a10.019,10.019,0,0,0-3.444,3.616l-9.132-5.275a10.014,10.014,0,0,1,3.444-3.616l264.369-152.633a9.1,9.1,0,0,1,13.958,7.278Z" transform="translate(-1025.517 -527.957)"/></g><g transform="translate(3439.85 1263.945)"><g transform="translate(0.217)"><path class="a" d="M1265.275,288.767s.948-14.251,9.346-24.83,7.882-14.935,2.091-17.07-19.242,10.614-16.248,27.688S1265.275,288.767,1265.275,288.767Z" transform="translate(-1260.035 -246.633)"/><path class="b" d="M1265.275,288.767s.948-14.251,9.346-24.83,7.882-14.935,2.091-17.07-19.242,10.614-16.248,27.688S1265.275,288.767,1265.275,288.767Z" transform="translate(-1260.035 -246.633)"/><g transform="translate(2.282 2.14)"><path class="c" d="M1264.54,282.344a.331.331,0,0,1-.33-.31c-.981-15.694,10.1-28.57,14.251-31.485a.331.331,0,0,1,.38.542c-4.067,2.858-14.934,15.49-13.97,30.9a.331.331,0,0,1-.31.351Z" transform="translate(-1264.149 -250.489)"/></g></g><g transform="translate(0 22.931)"><path class="a" d="M1262.817,318.936a75.21,75.21,0,0,0,11.565,2.783c6.5,1.03,9.374-2.081,9.374-2.081s-2.561-6.1-6.254-7.811a36.286,36.286,0,0,1,11.287,4.63s3.971.06,5.552-6c0,0-2.353-3.648-10.247-5.618a26,26,0,0,1,11.724.556c.519.206,2.731-7.63,3.4-11.246s-.784-3.577-3.6-4.33-12.154-2.849-13.918-1.3-2.661,6.851-2.661,6.851a12.5,12.5,0,0,1-.265-6.718,10.79,10.79,0,0,0-6.472.154c-3.22.937-3.377,3.127-3.231,5.6a24.222,24.222,0,0,0,1.394,6.286s-2.51-3.217-2.587-10.191c0,0-6.589,3.273-7.714,9.813C1259.552,303.854,1258.69,314.239,1262.817,318.936Z" transform="translate(-1259.644 -287.965)"/><g transform="translate(4.05 3.837)"><path class="c" d="M1267.31,320.743a.367.367,0,0,0,.33-.207c5.248-10.9,24.759-23.573,31.749-24.932a.366.366,0,1,0-.14-.718c-7.1,1.382-26.936,14.256-32.267,25.333a.365.365,0,0,0,.329.524Z" transform="translate(-1266.944 -294.88)"/></g></g></g><g transform="translate(3062.339 964.554)"><path class="a" d="M1318.626,559.063a2.4,2.4,0,0,0-2.484.2L1066.674,703.311a7.543,7.543,0,0,0-3.413,5.909l0,171.084a3.325,3.325,0,0,0,1.438,2.966c.558.3,3.49,2.005,4.36,2.474a1.958,1.958,0,0,0,1.977-.114L1320.5,741.524a7.528,7.528,0,0,0,3.416-5.906V563.7a2.36,2.36,0,0,0-1.059-2.242C1322.245,561.14,1319.255,559.44,1318.626,559.063Z" transform="translate(-1063.258 -558.801)"/><g transform="translate(0 2.465)"><g class="m" transform="translate(-1062.789 -561.002)"><path class="aa" d="M 1069.443359375 885.1961669921875 C 1068.440551757813 885.1961669921875 1067.655029296875 884.0181274414063 1067.655029296875 882.5142211914063 L 1067.655029296875 711.4298706054688 C 1067.655029296875 710.4636840820313 1067.986206054688 709.3578491210938 1068.587646484375 708.316162109375 C 1069.18896484375 707.2745971679688 1069.98095703125 706.4346923828125 1070.817626953125 705.951171875 L 1320.2841796875 561.901123046875 C 1320.736450195313 561.6398315429688 1321.176879882813 561.501708984375 1321.558227539063 561.501708984375 C 1322.427490234375 561.501708984375 1322.946533203125 562.225830078125 1322.946533203125 563.4386596679688 L 1322.946533203125 735.3530883789063 C 1322.946533203125 736.3192138671875 1322.615112304688 737.4243774414063 1322.013305664063 738.4649658203125 C 1321.411499023438 739.5054321289063 1320.618896484375 740.3438720703125 1319.781494140625 740.8258056640625 L 1070.320556640625 884.9334716796875 C 1070.017822265625 885.107666015625 1069.722412109375 885.1961669921875 1069.443359375 885.1961669921875 Z"/><path class="ab" d="M 1321.558227539063 562.0016479492188 C 1321.2646484375 562.0016479492188 1320.91064453125 562.1165771484375 1320.5341796875 562.3341064453125 L 1071.067749023438 706.3840942382813 C 1069.488891601563 707.2965087890625 1068.155029296875 709.6072387695313 1068.155029296875 711.4298706054688 L 1068.155029296875 882.5142211914063 C 1068.155029296875 883.6969604492188 1068.744995117188 884.6961669921875 1069.443359375 884.6961669921875 C 1069.633911132813 884.6961669921875 1069.845336914063 884.6300048828125 1070.070434570313 884.50048828125 L 1319.532104492188 740.3924560546875 C 1321.11181640625 739.4833374023438 1322.446533203125 737.1755981445313 1322.446533203125 735.3530883789063 L 1322.446533203125 563.4386596679688 C 1322.446533203125 562.9019775390625 1322.3310546875 562.0016479492188 1321.558227539063 562.0016479492188 M 1321.558227539063 561.001708984375 C 1322.677734375 561.001708984375 1323.446533203125 561.8945922851563 1323.446533203125 563.4386596679688 L 1323.446533203125 735.3530883789063 C 1323.446533203125 737.5297241210938 1321.917358398438 740.173583984375 1320.030883789063 741.2591552734375 L 1070.570678710938 885.3663940429688 C 1070.17578125 885.5936279296875 1069.796264648438 885.6961669921875 1069.443359375 885.6961669921875 C 1068.110717773438 885.6961669921875 1067.155029296875 884.2352294921875 1067.155029296875 882.5142211914063 L 1067.155029296875 711.4298706054688 C 1067.155029296875 709.2532348632813 1068.68310546875 706.607177734375 1070.5673828125 705.5182495117188 L 1320.0341796875 561.4681396484375 C 1320.581909179688 561.151611328125 1321.099487304688 561.001708984375 1321.558227539063 561.001708984375 Z"/></g><path class="n" d="M1064.7,865.932c.37.2,3.024,1.711,4.187,2.373a3.475,3.475,0,0,1-1.256-2.866V705.52l-4.369-2.556V862.97A3.318,3.318,0,0,0,1064.7,865.932Z" transform="translate(-1063.258 -543.929)"/></g><path class="a" d="M1323.444,563.412c-.014-2.155-1.534-3.027-3.41-1.944l-249.467,144.05a7.546,7.546,0,0,0-3.412,5.912l0,11.163,256.286-147.98Z" transform="translate(-1062.789 -558.537)"/><path class="o" d="M1320.389,561.732l-249.46,144.05a7.02,7.02,0,0,0-2.405,2.533l-4.335-2.512a6.817,6.817,0,0,1,2.374-2.491L1316.031,559.26a2.4,2.4,0,0,1,2.48-.2c.612.375,3.445,1.985,4.164,2.372A2.47,2.47,0,0,0,1320.389,561.732Z" transform="translate(-1063.146 -558.801)"/><path class="p" d="M1063.258,704.532l0-11.1a7.032,7.032,0,0,1,1.04-3.413l4.347,2.5a6.9,6.9,0,0,0-1.02,3.391v11.162Z" transform="translate(-1063.258 -543.02)"/><g transform="translate(56.139 133.241)"><path class="a" d="M1265.278,678.336,1115.864,764.6a5.51,5.51,0,0,0-2.494,4.319v42.834a5.5,5.5,0,0,0,2.5,4.315l4.365,2.512a5.526,5.526,0,0,0,4.99,0l149.394-86.252a5.518,5.518,0,0,0,2.495-4.319l.018-42.847a5.5,5.5,0,0,0-2.495-4.315l-4.365-2.512A5.522,5.522,0,0,0,1265.278,678.336Z" transform="translate(-1113.37 -677.739)"/><path class="q" d="M1277.027,684.755c-.173-1.289-1.22-1.762-2.476-1.036L1125.143,769.98a5.008,5.008,0,0,0-1.762,1.865l-9.351-5.4a5.093,5.093,0,0,1,1.75-1.843L1265.2,678.341a5.51,5.51,0,0,1,4.987-.011l4.365,2.511A5.562,5.562,0,0,1,1277.027,684.755Z" transform="translate(-1113.291 -677.739)"/><path class="r" d="M1124.8,809.254a5.56,5.56,0,0,1-4.561-.2l-4.366-2.511a5.5,5.5,0,0,1-2.5-4.319V759.4a5.164,5.164,0,0,1,.737-2.476l9.351,5.4a5,5,0,0,0-.737,2.453v42.842C1122.723,809.047,1123.621,809.7,1124.8,809.254Z" transform="translate(-1113.37 -668.216)"/><path class="a" d="M1124.216,769.378l149.414-86.264c1.377-.8,2.493-.151,2.493,1.44L1276.1,727.4a5.518,5.518,0,0,1-2.495,4.319l-149.394,86.252c-1.377.794-2.494.15-2.494-1.441V773.7A5.514,5.514,0,0,1,1124.216,769.378Z" transform="translate(-1112.366 -677.133)"/><path class="s" d="M1225.591,698.687l-109.812,63.4a5.093,5.093,0,0,0-1.75,1.843l9.351,5.4a5.008,5.008,0,0,1,1.762-1.865l109.784-63.383Z" transform="translate(-1113.291 -675.219)"/><path class="t" d="M1234,703.5l-109.786,63.384a5.511,5.511,0,0,0-2.494,4.32v42.833c0,1.591,1.116,2.235,2.494,1.441L1234,752.095Z" transform="translate(-1112.366 -674.64)"/><g transform="translate(32.918 66.029)"><path class="a" d="M1147.005,759l56.648-32.707c2.349-1.357,4.253-.393,4.253,2.152a9.122,9.122,0,0,1-4.254,7.063l-56.643,32.7c-2.349,1.357-4.255.393-4.256-2.151A9.115,9.115,0,0,1,1147.005,759Z" transform="translate(-1142.754 -725.679)"/></g><g transform="translate(136.801 25.241)"><path class="s" d="M1246.811,726.015,1235.93,732.3l1.686-15.263c-1.3-.688-2.131-2.382-2.131-4.813,0-4.334,2.635-9.369,5.886-11.246s5.885.115,5.885,4.45a14.787,14.787,0,0,1-2.131,7.274Z" transform="translate(-1235.485 -700.27)"/><path class="t" d="M1246.764,723.845l-9.577-5.529-1.305,11.811Z" transform="translate(-1235.437 -698.099)"/><path class="t" d="M1241.278,700.976a12.839,12.839,0,0,0-5.019,6.661l8.773,5.065v0a14.786,14.786,0,0,0,2.131-7.274C1247.162,701.091,1244.528,699.1,1241.278,700.976Z" transform="translate(-1235.392 -700.27)"/></g></g><g transform="translate(110.812 107.012)"><path class="u" d="M1197.286,655.7c-3.722-2.155-8.865-1.85-14.548,1.433-11.358,6.558-20.565,22.507-20.564,35.623,0,6.582,2.321,11.2,6.067,13.333.975.556,6.265,3.634,7.247,4.2,3.721,2.151,8.861,1.844,14.541-1.435,11.357-6.558,20.563-22.507,20.563-35.624,0-6.555-2.3-11.158-6.019-13.306" transform="translate(-1162.174 -654.326)"/><path class="u" d="M1189.245,660.906c-11.356,6.561-20.565,22.507-20.563,35.623s9.209,18.433,20.567,11.875,20.576-22.507,20.563-35.624S1200.593,654.349,1189.245,660.906Z" transform="translate(-1161.391 -653.872)"/><path class="i" d="M1199.612,687.393v1.5a33,33,0,0,1-11.354,11.895c-4.426,2.552-8.427,2.831-11.355,1.2v-3.1c0-5.988,4.066-13.032,9.252-16.034l2.986-1.717c2.651-1.53,5.219-1.726,7.24-.557C1198.442,681.764,1199.612,684.243,1199.612,687.393Z" transform="translate(-1160.403 -651.259)"/><path class="o" d="M1196.963,655.7l7.29,4.226c-3.724-2.155-8.866-1.852-14.546,1.432-7.437,4.3-13.953,12.622-17.565,21.538l-7.289-4.229c3.612-8.916,10.124-17.239,17.565-21.535C1188.1,653.853,1193.243,653.546,1196.963,655.7Z" transform="translate(-1161.852 -654.325)"/><path class="v" d="M1175.216,706.006c-1.284-.741-6.074-3.53-6.975-4.044-3.746-2.136-6.067-6.75-6.067-13.33l7.29,4.228C1169.467,699.252,1171.658,703.794,1175.216,706.006Z" transform="translate(-1162.174 -650.2)"/><path class="b" d="M1165.175,676.054l7.289,4.229a38.166,38.166,0,0,0-3,14.086v0l-7.29-4.228A38.22,38.22,0,0,1,1165.175,676.054Z" transform="translate(-1162.174 -651.712)"/><g transform="translate(16.5 13.138)"><g transform="translate(4.642)"><path class="c" d="M1185.174,682.092a3.919,3.919,0,0,1-1.978-.516,4.849,4.849,0,0,1-2.149-4.462,12.8,12.8,0,0,1,5.874-10.171v0a4.4,4.4,0,0,1,7.086,4.095,12.812,12.812,0,0,1-5.87,10.172A6,6,0,0,1,1185.174,682.092Z" transform="translate(-1181.047 -666.053)"/></g><g transform="translate(0 15.427)"><path class="c" d="M1196.381,680.578c-2.021-1.17-4.59-.974-7.24.557l-2.986,1.717c-5.187,3-9.252,10.047-9.252,16.034v3.1c2.928,1.629,6.929,1.35,11.355-1.2a33,33,0,0,0,11.354-11.895v-1.5C1199.612,684.243,1198.442,681.764,1196.381,680.578Z" transform="translate(-1176.903 -679.824)"/></g></g></g></g><g transform="translate(3293.922 1093.505)"><g transform="translate(46.701)"><path class="w" d="M1371.513,726.532c-4.7,7.955-9.231,14.866-12.41,18.178-6.035,2.807-20.215,7.122-25.764,7.844a4.128,4.128,0,0,1-2.784-.655c-2.181-1.429-3.868-1.661-6.168-2.458-1.8-.623-2.564-1.482-2.9-1.155a2.046,2.046,0,0,0,.188,2.852,14.844,14.844,0,0,0,2.85,2.132,16.871,16.871,0,0,1-7.51.129c-4.8-1.26-7.071,1.049-3.822,6.263,1.163,1.867,5.741,4.856,15.022,4.05a82.39,82.39,0,0,0,9.86-1.166c8.9-1.9,18.8-3.741,24.879-5.558a15.774,15.774,0,0,0,5.908-4.095c10.233-11.664,13.621-19.974,18.107-27.527l-.388-12.342C1379.329,712.8,1375.449,719.874,1371.513,726.532Z" transform="translate(-1311.668 -669.205)"/><path class="s" d="M1382.325,712.838a11.684,11.684,0,0,0-11.093,4.743c-4.981,6.372-13.787,21.679-13.787,21.679s2.89,7.675,10.664,8.936l12.487-16.869S1386.51,719.65,1382.325,712.838Z" transform="translate(-1306.162 -669.243)"/><g transform="translate(47.355 89.855)"><rect class="w" width="8.142" height="14.516" transform="translate(47.668 125.769)"/><path class="w" d="M1379.477,867.343l-8.137.291-.407-15.362,8.544-.291Z" transform="translate(-1351.895 -742.349)"/><path class="t" d="M1409.4,754.205c0,8.1-1.192,73.262-1.192,73.262.189,2.33,2.286,6.626,1.833,15.575-.616,12.157-1.438,44.1-1.438,44.1a10.334,10.334,0,0,1-9.065.186s-6.6-44.766-8.059-56.813c-1.274-10.514-4.534-45.393-4.534-45.393l-4.413,41.161a50.15,50.15,0,0,1,1.008,13.476c-.381,5.572-3,34.593-3,34.593a10.74,10.74,0,0,1-9.4.749s-4.631-43.706-4.725-48.819c-.108-5.829,2.708-72.166,2.708-72.166Z" transform="translate(-1352.44 -754.118)"/><path class="r" d="M1397.872,875.737v-1.212c-.779.353-2.589,7.546-5.819,10.615-2.568,2.44-6.072,5.257-6.963,7.977-.926,2.829,4.879,4.39,7.279,3.948,2.787-.514,7.619-2.559,8.832-4.454s1.78-4.691,2.766-6.08,3.258-2.94,3.791-4.547c.292-.883-.055-2.818-.466-4.452-.377-1.5-.786-3.148-1.278-3.007,0,.183,0,.924,0,.924a6.286,6.286,0,0,1-4.071,1.433C1400.752,876.93,1397.863,876.684,1397.872,875.737Z" transform="translate(-1350.205 -739.639)"/><path class="r" d="M1373.3,863.679c-.422.016-.767.637-1.7,1.688a17.841,17.841,0,0,1-4.789,3.589c-3.048,1.589-8.975,4.034-11.657,5.293-1.676.785-1.6,2.894.135,4.094s5.914,2.065,10.936.9c2.736-.637,6.3-3.269,8.551-3.127s6.472.108,8.135-1.087,1-3.745.528-5.937c-.513-2.393-1.155-6.123-1.915-5.96v.825c-.979,1.544-6.03,2.172-8.18,1.036Z" transform="translate(-1353.939 -741.009)"/><path class="r" d="M1385.952,782.523a29.8,29.8,0,0,1-11.337-6.77s2.188,4.266,8.693,8.236l-1.391,36.756Z" transform="translate(-1351.453 -751.516)"/></g><g transform="translate(63.01 43.595)"><path class="a" d="M1404.656,714.038s6.693,1.548,6.241,13.686l-1.407,19.333.038,29.014c-5.987,6.784-32.528,6.287-41.615-.543,0,0,1.03-34.335,1.644-47.547.436-9.393,2.6-14.122,11.829-15.157l11.353.5Z" transform="translate(-1367.913 -712.824)"/></g><g transform="translate(64.263)"><path class="r" d="M1395.734,692.739a12.38,12.38,0,0,1-12.12,12.624c-6.693,0-10.656-5.807-12.12-12.624-2.679-12.467,5.427-12.624,12.12-12.624A12.38,12.38,0,0,1,1395.734,692.739Z" transform="translate(-1368.799 -673.163)"/><path class="r" d="M1399.121,695.943s-1.859,9.1-2.6,10.591a3.97,3.97,0,0,1-2.286,1.92l.13-6.4Z" transform="translate(-1366.002 -671.259)"/><path class="r" d="M1396.638,684.312s1.333-.334,2.749,1.879c1.214,1.9,1.49,6.157-.416,11.153l-3.5.418Z" transform="translate(-1365.853 -672.66)"/><path class="r" d="M1397.663,686.189l4.294.08A2.024,2.024,0,0,0,1400,684,2.377,2.377,0,0,0,1397.663,686.189Z" transform="translate(-1365.589 -672.696)"/><path class="r" d="M1398.191,685.451l3.18-3.059a2.053,2.053,0,0,0-3.012-.118A2.339,2.339,0,0,0,1398.191,685.451Z" transform="translate(-1365.591 -672.975)"/><path class="w" d="M1397.212,698.366c.7.437,1.7-.968,2.57-1.911s3.586-1.835,5,1.259c1.437,3.155-.992,6.154-3.012,7.157-3.614,1.8-4.761-.815-4.761-.815l-.292,14.41c-5.092,7.875-16.625,7.591-12.479-.381l.011-4.386a23.275,23.275,0,0,1-5.17.277c-2.821-.455-4.6-2.773-5.451-5.952-1.375-5.107-1.9-9.232-.73-19.276,1.278-11.01,13.573-11.125,20.213-6.772S1397.212,698.366,1397.212,698.366Z" transform="translate(-1368.645 -673.261)"/><path class="r" d="M1382.272,687.675c2.937-.292,5.841-.891,8.785-1.108a5.714,5.714,0,0,1,1.9.093c2.255.608,1.964,3.23,2.322,5.061.616,3.155,1.128,8.5,2.314,8.524.354.007,1.7-2.315,2.57-3.142a4.574,4.574,0,0,0,.785-2.41c.224-1.306.345-2.632.445-3.953.085-1.118.2-2.256.193-3.379a15.509,15.509,0,0,0-.294-3.77,6.579,6.579,0,0,0-1.571-2.824q-.111-.126-.225-.249a14.871,14.871,0,0,0-5.257-3.541,31.681,31.681,0,0,0-8.895-1.934,90.609,90.609,0,0,1-9.065-1.092.953.953,0,0,0-.525-.008.833.833,0,0,0-.425.673,3.735,3.735,0,0,0,1.519,3.691c-2.029.161-4.36-.9-6.316-1.426a1.3,1.3,0,0,0-1,0,1,1,0,0,0-.392.57,3.7,3.7,0,0,0-.055,1.622,9.335,9.335,0,0,0,1.749,4.455,10.962,10.962,0,0,0,6.055,3.958A17.559,17.559,0,0,0,1382.272,687.675Z" transform="translate(-1369.032 -673.909)"/><path class="x" d="M1382.956,710.615s6.3-1.321,8.5-2.54a7.415,7.415,0,0,0,3.043-3.136,10.527,10.527,0,0,1-1.729,3.7c-1.61,2.144-9.811,3.723-9.811,3.723Z" transform="translate(-1367.358 -670.177)"/><g transform="translate(5.237 16.539)"><path class="r" d="M1384.306,695a1.266,1.266,0,1,0,1.262-1.369A1.312,1.312,0,0,0,1384.306,695Z" transform="translate(-1372.432 -688.075)"/><path class="r" d="M1386.115,690.094l2.7,1.551a1.724,1.724,0,0,0-.63-2.238A1.476,1.476,0,0,0,1386.115,690.094Z" transform="translate(-1372.215 -688.607)"/><path class="x" d="M1383.774,702.959l-2.88,1.126a1.5,1.5,0,0,0,1.956.994A1.7,1.7,0,0,0,1383.774,702.959Z" transform="translate(-1372.843 -686.954)"/><path class="r" d="M1374.006,691.315l2.462-1.974a1.453,1.453,0,0,0-2.14-.342A1.747,1.747,0,0,0,1374.006,691.315Z" transform="translate(-1373.707 -688.672)"/><path class="r" d="M1374.939,694.669a1.266,1.266,0,1,0,1.263-1.369A1.312,1.312,0,0,0,1374.939,694.669Z" transform="translate(-1373.559 -688.115)"/><path class="x" d="M1381.468,693.58l-.146,7.969-4.523-1.038Z" transform="translate(-1373.335 -688.082)"/></g></g></g><g transform="translate(0 52.561)"><g transform="translate(16.865 28.763)"><path class="i" d="M1285.034,753.921l7.017-4.051,2.781-3.368-7.017,4.051-2.781,3.368" transform="translate(-1285.034 -746.502)"/><path class="y" d="M1285.034,753.921l7.017-4.051,2.781-3.368-7.017,4.051-2.781,3.368" transform="translate(-1285.034 -746.502)"/></g><g transform="translate(35.962 37.965)"><path class="i" d="M1302.082,763.959l7.017-4.051,5.865-5.191-7.017,4.051-5.865,5.191" transform="translate(-1302.082 -754.716)"/><path class="y" d="M1302.082,763.959l7.017-4.051,5.865-5.191-7.017,4.051-5.865,5.191" transform="translate(-1302.082 -754.716)"/></g><path class="u" d="M1365.609,782.035a14.967,14.967,0,0,1,2.9,7.637A14.963,14.963,0,0,1,1365.609,782.035Zm16.314.212c-2.36-16.077-11-31.982-21.294-37.924-4.941-2.857-9.513-2.96-13.175-.818-1.072.622-5.044,2.914-6.611,3.812a3.627,3.627,0,0,0-.369.218,9.623,9.623,0,0,0-.853.541,11.849,11.849,0,0,0-1.52,1.256c-.069.057-.139.138-.218.207-.208.207-.416.437-.611.668-.242.277-.484.565-.7.864a16.426,16.426,0,0,0-1.289,1.981c-.2.346-.391.715-.576,1.094l-57.71-33.319-7.014,4.043v4.469l.6.345.553.323v.944l-1.152.668v2.6l8.476,17.943,8.384,4.848,2.787-3.374,7.394,4.422,4.25,7.279,4.676,2.694,5.861-5.194,7.2,4.157,2.419,9.974,12.057,6.956a66.4,66.4,0,0,0,2.281,7.5c.081.253.172.506.277.783,4.007,10.538,10.388,19.555,17.575,23.713a18.611,18.611,0,0,0,2.705,1.3,13.68,13.68,0,0,0,1.509.506,11.2,11.2,0,0,0,1.348.3,11.568,11.568,0,0,0,4.273-.012l.588-.138a5.026,5.026,0,0,0,.817-.242l.623-.242a4.663,4.663,0,0,0,.644-.3,5.885,5.885,0,0,0,.6-.311c.1-.057.207-.114.3-.173a.437.437,0,0,0,.139-.081c1.6-.921,5.551-3.2,6.622-3.812,5.332-3.086,8.787-10.906,8.787-21.962A57.659,57.659,0,0,0,1381.923,782.247Z" transform="translate(-1269.98 -720.827)"/><path class="u" d="M1363.551,795.163c-2.768-1.6-5.013-6.35-5.013-10.612s2.245-6.422,5.013-4.824,5.013,6.35,5.013,10.612S1366.319,796.761,1363.551,795.163Zm11.358-9.307c-2.36-16.067-11-31.971-21.294-37.914-4.768-2.753-9.179-2.96-12.772-1.059a3.627,3.627,0,0,0-.369.218,9.623,9.623,0,0,0-.853.541,11.849,11.849,0,0,0-1.52,1.256c-.069.057-.139.138-.218.207-.208.207-.416.437-.611.668-.242.277-.484.565-.7.864a16.426,16.426,0,0,0-1.289,1.981c-.2.346-.391.715-.576,1.094a27.717,27.717,0,0,0-2.223,6.818l-62.5-36.094V728.9l.6.345.553.323v.944l-1.152.668v2.6l8.476,17.943,8.384,4.848,2.787-3.374,7.394,4.422,4.25,7.279,4.676,2.694,5.861-5.194,7.2,4.157,2.419,9.974,12.057,6.956a66.4,66.4,0,0,0,2.281,7.5c.081.253.172.506.277.783,4.007,10.538,10.388,19.555,17.575,23.713a18.611,18.611,0,0,0,2.705,1.3,13.68,13.68,0,0,0,1.509.506,11.2,11.2,0,0,0,1.348.3,11.568,11.568,0,0,0,4.273-.012l.588-.138a5.026,5.026,0,0,0,.817-.242l.623-.242a4.663,4.663,0,0,0,.644-.3,5.885,5.885,0,0,0,.6-.311c.1-.057.207-.114.3-.173a.437.437,0,0,0,.139-.081c5.113-3.224,8.4-10.929,8.4-21.721A59.486,59.486,0,0,0,1374.91,785.856Z" transform="translate(-1269.98 -720.393)"/><path class="y" d="M1359.058,784.456c0,4.262-2.246,6.426-5.01,4.825s-5.022-6.345-5.022-10.607,2.246-6.426,5.022-4.825a7.1,7.1,0,0,1,2.05,1.876,15.045,15.045,0,0,0,2.9,7.636A8.859,8.859,0,0,1,1359.058,784.456Z" transform="translate(-1260.474 -714.514)"/><path class="o" d="M1374.961,788.483c0,11.056-3.455,18.875-8.787,21.962-1.071.611-5.022,2.891-6.622,3.812,5.113-3.224,8.4-10.929,8.4-21.721a59.486,59.486,0,0,0-.645-8.522c-2.36-16.067-11-31.971-21.294-37.914-4.768-2.753-9.179-2.96-12.772-1.059,1.566-.9,5.539-3.191,6.611-3.812,3.662-2.142,8.234-2.039,13.175.818,10.3,5.942,18.934,21.847,21.294,37.924A57.659,57.659,0,0,1,1374.961,788.483Z" transform="translate(-1262.373 -718.552)"/><g transform="translate(97.18 68.702)"><path class="u" d="M1365.122,787.436c0,10.792-3.282,18.5-8.4,21.721,1.6-.921,5.551-3.2,6.622-3.812,5.333-3.086,8.787-10.906,8.787-21.962,0-.409-.014-.819-.023-1.229l-7.015,4.05C1365.107,786.615,1365.122,787.027,1365.122,787.436Z" transform="translate(-1356.727 -782.154)"/><path class="b" d="M1365.122,787.436c0,10.792-3.282,18.5-8.4,21.721,1.6-.921,5.551-3.2,6.622-3.812,5.333-3.086,8.787-10.906,8.787-21.962,0-.409-.014-.819-.023-1.229l-7.015,4.05C1365.107,786.615,1365.122,787.027,1365.122,787.436Z" transform="translate(-1356.727 -782.154)"/></g><g transform="translate(0 9.179)"><path class="p" d="M1332.735,764.585v2.28l-62.755-36.232,1.152-.668v-.944Z" transform="translate(-1269.98 -729.021)"/><path class="p" d="M1332.735,765.429v1.336l-62.755-36.232,1.152-.668v-.012Z" transform="translate(-1269.98 -728.921)"/></g><ellipse class="z" cx="16.57" cy="31.006" rx="16.57" ry="31.006" transform="translate(58.695 36.535) rotate(-17.064)"/><path class="o" d="M1334.7,754.146a27.717,27.717,0,0,0-2.223,6.818l-62.5-36.094,7.014-4.043Z" transform="translate(-1269.98 -720.827)"/></g><g transform="translate(95.384 44.809)"><path class="w" d="M1405.65,758.387c3.279-6.2,7.014-20.112,8.875-27.134,2.644-9.974-1.635-16.249-6.49-16.5-3.045.464-13.042,36.845-13.042,36.845-1.108.885-16.324,8.6-21.213,10.535a3.806,3.806,0,0,1-2.707.01c-2.347-.857-3.946-.693-6.244-.925-1.8-.18-2.71-.82-2.937-.435a2.057,2.057,0,0,0,.883,2.652,14.426,14.426,0,0,0,3.134,1.369,19.1,19.1,0,0,1-6.066.823c-4.7-.1-6.391,1.938-2.746,6.7,2.284,2.984,5.958,3.925,14.229,1.064,2.383-.825,5.611-2.427,8.616-3.518,6.213-2.257,7.808-2.5,12.577-4.107C1399.4,763.45,1404.2,761.137,1405.65,758.387Z" transform="translate(-1355.125 -713.807)"/><path class="s" d="M1401.8,713.908c2.859.391,5.63,1.037,7.293,3.346s3.049,5.568,1.386,14.517a138.293,138.293,0,0,1-5.082,18.455s-6.651,2.842-13.725-4.368l4.857-18.8S1397.359,714.851,1401.8,713.908Z" transform="translate(-1350.73 -713.908)"/></g></g></g></svg>